<?xml version="1.0" standalone="no"?>
<!DOCTYPE svg PUBLIC "-//W3C//DTD SVG 20010904//EN"
 "http://www.w3.org/TR/2001/REC-SVG-20010904/DTD/svg10.dtd">
<svg version="1.0" xmlns="http://www.w3.org/2000/svg"
 width="239.000000pt" height="239.000000pt" viewBox="0 0 239.000000 239.000000"
 preserveAspectRatio="xMidYMid meet">
<metadata>
Created by potrace 1.11, written by Peter Selinger 2001-2013
</metadata>
<g transform="translate(0.000000,239.000000) scale(0.100000,-0.100000)"
fill="#000000" stroke="none">
<path d="M0 1566 l0 -823 48 -18 c49 -18 112 -70 112 -92 0 -7 5 -13 10 -13 6
0 10 -7 10 -15 0 -9 9 -15 23 -15 12 0 31 -7 41 -15 11 -8 14 -15 8 -15 -7 0
-12 -10 -12 -23 0 -12 -10 -34 -22 -48 -28 -31 -58 -86 -58 -105 0 -8 -4 -14
-8 -14 -18 0 -42 -77 -42 -130 1 -30 1 -75 2 -99 0 -32 -5 -48 -18 -58 -10 -7
-14 -13 -9 -13 5 0 -1 -10 -12 -23 -45 -49 -65 -47 429 -44 423 2 463 3 460
18 -1 11 9 21 29 28 35 12 54 4 64 -30 6 -17 16 -19 83 -19 l77 0 13 32 c8 18
18 44 23 57 5 13 12 21 16 18 3 -4 1 -13 -6 -21 -9 -11 -8 -17 3 -29 9 -8 12
-23 9 -36 -5 -21 -5 -21 206 -21 l211 0 -6 25 c-9 34 23 34 36 0 9 -25 10 -25
145 -25 77 0 135 4 135 9 0 32 -86 136 -159 192 -23 18 -35 36 -36 54 -1 25 1
26 35 21 134 -24 156 -15 99 40 -36 34 -73 104 -56 104 18 -1 48 -26 40 -33
-3 -4 1 -7 10 -7 10 0 17 -6 17 -13 0 -18 91 -113 115 -120 17 -6 21 -17 23
-64 2 -32 7 -62 13 -67 5 -6 9 -22 9 -38 0 -37 20 -78 38 -78 11 0 13 8 7 36
-4 24 -3 34 4 29 6 -3 11 -19 11 -36 0 -24 4 -29 25 -29 22 0 24 3 18 33 -3
17 -9 34 -13 37 -4 3 -11 21 -15 40 -4 19 -12 38 -18 42 -8 5 -7 15 1 33 7 15
10 31 7 36 -4 5 -2 9 3 9 18 0 72 -152 72 -202 0 -28 0 -28 70 -28 l70 0 0
1195 0 1195 -1195 0 -1195 0 0 -824z m1054 295 c14 -26 14 -30 1 -41 -8 -7
-15 -9 -16 -4 -4 35 -6 74 -3 74 2 0 10 -13 18 -29z m-594 -1171 c0 -5 -5 -10
-11 -10 -5 0 -7 5 -4 10 3 6 8 10 11 10 2 0 4 -4 4 -10z m-20 -35 c0 -5 -5 -3
-10 5 -5 8 -10 20 -10 25 0 6 5 3 10 -5 5 -8 10 -19 10 -25z m-26 -11 c5 -14
4 -15 -9 -4 -17 14 -19 20 -6 20 5 0 12 -7 15 -16z m-19 -14 c3 -6 -1 -7 -9
-4 -18 7 -21 14 -7 14 6 0 13 -4 16 -10z m1095 -164 c0 -24 23 -51 37 -44 4 2
18 -6 30 -19 12 -13 19 -23 15 -23 -4 0 0 -4 8 -10 8 -5 11 -12 8 -16 -4 -3
-27 5 -50 19 -24 14 -60 28 -81 32 -43 8 -57 24 -34 37 10 5 14 15 10 25 -4
11 -3 14 5 9 7 -4 12 -2 12 3 0 6 9 11 20 11 14 0 20 -7 20 -24z m-157 -27
c-6 -6 -35 -14 -64 -19 -30 -4 -43 -8 -29 -9 14 -1 44 -4 68 -7 23 -3 42 -1
42 3 0 5 11 10 25 11 14 1 25 -2 25 -6 0 -11 -108 -64 -119 -58 -5 3 -4 -5 2
-19 14 -30 22 -31 48 -6 12 11 29 17 40 14 33 -9 19 -30 -16 -23 -5 1 -1 -8 9
-19 11 -12 22 -19 25 -16 3 4 0 10 -7 14 -8 5 0 8 19 8 l32 0 -33 -27 c-31
-25 -48 -31 -102 -34 -16 0 -28 -7 -28 -14 0 -7 -7 -15 -15 -18 -8 -4 -15 -12
-15 -20 0 -8 -10 -14 -21 -14 -18 0 -19 2 -9 15 9 11 9 15 1 15 -16 0 -61 49
-61 66 0 7 8 19 18 26 9 7 17 18 17 23 0 6 4 33 8 62 8 58 12 60 97 62 39 1
51 -2 43 -10z m72 -239 c-19 -21 -35 -26 -35 -12 0 5 10 14 23 20 31 15 32 14
12 -8z m-54 -24 c-8 -10 -9 -16 -1 -21 5 -3 10 -11 10 -18 0 -8 -3 -8 -12 1
-19 19 -27 14 -34 -24 -4 -24 -3 -39 5 -44 14 -8 5 -60 -10 -60 -5 0 -12 14
-15 30 -4 17 -10 30 -14 30 -19 0 6 59 38 88 39 34 52 42 33 18z m73 -1 c-4
-8 -10 -15 -15 -15 -4 0 -6 7 -3 15 4 8 10 15 15 15 4 0 6 -7 3 -15z m-287
-27 c20 -25 24 -66 7 -82 -14 -14 -17 -14 -39 0 -29 19 -44 72 -24 85 20 13
45 11 56 -3z m213 -32 c0 -3 -4 -8 -10 -11 -5 -3 -10 -1 -10 4 0 6 5 11 10 11
6 0 10 -2 10 -4z m353 -43 c-7 -2 -21 -2 -30 0 -10 3 -4 5 12 5 17 0 24 -2 18
-5z m-27 -61 c-9 -9 -37 8 -31 18 5 8 11 7 21 -1 8 -6 12 -14 10 -17z"/>
<path d="M1538 383 c7 -3 16 -2 19 1 4 3 -2 6 -13 5 -11 0 -14 -3 -6 -6z"/>
<path d="M1192 328 c5 -15 37 -18 41 -3 1 6 -9 12 -22 13 -16 3 -22 -1 -19
-10z"/>
<path d="M1280 285 c0 -8 5 -15 10 -15 6 0 10 7 10 15 0 8 -4 15 -10 15 -5 0
-10 -7 -10 -15z"/>
</g>
</svg>
